<?xml version="1.0" encoding="utf-8"?>
<!-- Generator: Adobe Illustrator 15.0.0, SVG Export Plug-In . SVG Version: 6.00 Build 0)  -->
<!DOCTYPE svg PUBLIC "-//W3C//DTD SVG 1.1//EN" "http://www.w3.org/Graphics/SVG/1.1/DTD/svg11.dtd">
<svg version="1.1"
	 id="svg2" sodipodi:docname="nf-core-logo.svg" inkscape:version="0.91 r13725" xmlns:inkscape="http://www.inkscape.org/namespaces/inkscape" xmlns:sodipodi="http://sodipodi.sourceforge.net/DTD/sodipodi-0.dtd" xmlns:cc="http://creativecommons.org/ns#" xmlns:rdf="http://www.w3.org/1999/02/22-rdf-syntax-ns#" xmlns:svg="http://www.w3.org/2000/svg" xmlns:dc="http://purl.org/dc/elements/1.1/"
	 xmlns="http://www.w3.org/2000/svg" xmlns:xlink="http://www.w3.org/1999/xlink" x="0px" y="0px" width="546px" height="245.723px"
	 viewBox="22.14 350.445 546 245.723" enable-background="new 22.14 350.445 546 245.723" xml:space="preserve">
<sodipodi:namedview  id="namedview96" inkscape:window-maximized="1" pagecolor="#ffffff" bordercolor="#666666" borderopacity="1" objecttolerance="10" gridtolerance="10" guidetolerance="10" showgrid="false" inkscape:zoom="0.6442836" inkscape:cx="466.47864" inkscape:cy="251.97689" inkscape:pageopacity="0" inkscape:pageshadow="2" inkscape:window-width="1920" inkscape:window-height="1015" inkscape:window-x="1920" inkscape:window-y="724" inkscape:current-layer="layer3">
	</sodipodi:namedview>
<g id="layer1" inkscape:label="Text as path" inkscape:groupmode="layer" display="none">
	<g id="g4340" transform="matrix(1.0000013,0,0,1.0000013,-6.8781844e-5,-3.3646731e-4)" display="inline">
		<path id="path34" inkscape:connector-curvature="0" fill="#22AE63" d="M39.3,401.362c6.519-1.466,12.346-2.2,17.479-2.2
			c8.72,0,15.281,1.711,19.682,5.134s6.601,9.046,6.601,16.87v41.562H64.848v-37.895c0-7.09-3.993-10.636-11.979-10.636
			c-1.794,0-3.627,0.205-5.501,0.611c-1.876,0.409-3.343,0.898-4.4,1.467v46.452H24.753v-56.598
			C27.931,404.418,32.779,402.829,39.3,401.362"/>
		<path id="path38" inkscape:connector-curvature="0" fill="#22AE63" d="M103.842,414.811h-9.046v-13.936h9.168v-1.466
			c0.081-9.291,2.22-15.749,6.418-19.375c4.196-3.625,9.921-5.439,17.175-5.439c1.302,0,2.729,0.122,4.278,0.366
			c1.547,0.245,2.812,0.531,3.789,0.855v16.014c-0.897-0.896-1.793-1.568-2.689-2.017c-0.897-0.447-2.038-0.673-3.422-0.673
			c-2.283,0-4.076,0.612-5.379,1.833c-1.304,1.223-1.956,3.301-1.956,6.234v3.667h13.446v13.936h-13.567v47.918h-18.215V414.811z"/>
		<path id="path40" inkscape:connector-curvature="0" fill="#22AF62" d="M148.949,418.964h37.283v12.591h-37.283V418.964
			L148.949,418.964z"/>
		<path id="path44" inkscape:connector-curvature="0" fill="#231F20" d="M216.666,460.772c-4.89-2.361-8.783-5.928-11.675-10.695
			c-2.894-4.768-4.339-10.574-4.339-17.42c0-11.002,2.934-19.333,8.801-24.998c5.868-5.663,13.691-8.496,23.471-8.496
			c3.422,0,6.885,0.348,10.391,1.039c3.503,0.693,6.601,1.65,9.29,2.873v15.646c-3.343-1.467-6.316-2.586-8.924-3.362
			c-2.609-0.773-5.216-1.161-7.823-1.161c-5.379,0-9.577,1.325-12.591,3.972c-3.016,2.65-4.523,6.784-4.523,12.407
			c0,6.277,1.406,10.922,4.218,13.936c2.812,3.016,7.396,4.523,13.752,4.523c4.808,0,10.146-1.629,16.014-4.891v15.525
			c-2.934,1.549-5.971,2.711-9.107,3.484c-3.138,0.773-6.661,1.16-10.573,1.16C227.015,464.317,221.556,463.136,216.666,460.772"/>
		<path id="path48" inkscape:connector-curvature="0" fill="#231F20" d="M303.459,445.31c2.28-3.137,3.423-7.721,3.423-13.752
			c0-6.602-1.122-11.307-3.362-14.119c-2.242-2.811-5.644-4.217-10.206-4.217c-4.728,0-8.129,1.406-10.208,4.217
			c-2.078,2.813-3.117,7.518-3.117,14.119c0,6.277,1.079,10.922,3.24,13.936c2.158,3.016,5.52,4.523,10.085,4.523
			C297.793,450.017,301.176,448.448,303.459,445.31 M269.843,456.251c-5.216-5.541-7.824-13.771-7.824-24.693
			c0-11.408,2.587-19.721,7.764-24.937c5.173-5.214,13.018-7.823,23.531-7.823c10.513,0,18.415,2.67,23.714,8.007
			c5.297,5.338,7.946,13.589,7.946,24.753c0,10.758-2.732,18.947-8.19,24.57c-5.461,5.623-13.285,8.436-23.47,8.436
			C282.881,464.563,275.057,461.792,269.843,456.251"/>
		<path id="path52" inkscape:connector-curvature="0" fill="#231F20" d="M337.563,407.355c1.223-1.058,3.361-2.241,6.417-3.545
			c3.057-1.303,6.479-2.424,10.269-3.361c3.789-0.936,7.436-1.406,10.94-1.406c6.764,0,11.448,1.02,14.058,3.057v13.324
			c-3.26-0.733-7.945-1.1-14.058-1.1c-3.831,0-6.968,0.204-9.412,0.611v47.797h-18.214V407.355z"/>
		<path id="path56" inkscape:connector-curvature="0" fill="#231F20" d="M402.717,424.958h22.859
			c-0.571-4.401-1.732-7.537-3.484-9.413c-1.753-1.873-4.34-2.811-7.762-2.811C407.809,412.734,403.94,416.81,402.717,424.958
			 M443.668,436.571H402.84c1.547,8.557,7.291,12.834,17.235,12.834c3.015,0,5.969-0.428,8.862-1.283
			c2.892-0.855,5.969-1.975,9.229-3.361v15.646c-6.683,2.77-14.18,4.156-22.492,4.156c-6.276,0-11.777-1.283-16.503-3.85
			c-4.727-2.568-8.395-6.254-11.002-11.063c-2.608-4.809-3.911-10.471-3.911-16.992c0-10.758,2.668-19.089,8.007-24.999
			c5.336-5.907,12.937-8.863,22.798-8.863C434.377,398.798,443.912,411.389,443.668,436.571"/>
		
			<linearGradient id="path60_1_" gradientUnits="userSpaceOnUse" x1="0.1556" y1="841.4131" x2="1.1556" y2="841.4131" gradientTransform="matrix(22.0633 17.2375 17.2375 -22.0633 -14346.8174 18980.707)">
			<stop  offset="0" style="stop-color:#0C542A"/>
			<stop  offset="0.2147" style="stop-color:#0C542A"/>
			<stop  offset="0.58" style="stop-color:#25AF64"/>
			<stop  offset="0.8466" style="stop-color:#25AF64"/>
			<stop  offset="1" style="stop-color:#25AF64"/>
		</linearGradient>
		<path id="path60" inkscape:connector-curvature="0" fill="url(#path60_1_)" d="M163.19,419.005l-12.523,12.572h35.531v-12.572
			H163.19z"/>
	</g>
</g>
<g id="layer2" inkscape:label="Icon" inkscape:groupmode="layer">
	<g id="g4301">
		<path id="path66" inkscape:connector-curvature="0" fill="#22AE63" d="M563.39,412.021v1.982c-0.041,0.01-0.083,0.021-0.123,0.031
			c-0.338-0.277-0.678-0.552-1.012-0.833c-2.229-1.87-4.588-3.548-7.197-4.853c-0.451-0.226-0.89-0.492-1.396-0.595
			c-0.037-0.081-0.116-0.093-0.188-0.122c-0.984-0.406-1.993-0.734-3.031-0.974c-2.254-0.522-4.517-0.571-6.786-0.115
			c-2.915,0.586-5.524,1.872-7.97,3.522c-2.426,1.639-4.612,3.563-6.664,5.644c-0.371,0.376-0.377,0.375-0.605-0.1
			c-1.091-2.271-2.291-4.479-3.793-6.511c-1.147-1.551-2.43-2.969-4.092-3.992c-1.677-1.031-3.472-1.406-5.409-0.938
			c-2.377,0.574-4.286,1.96-6.087,3.53c-1.099,0.85-2.084,1.828-3.103,2.767c-0.915,0.842-1.833,1.679-2.782,2.482
			c-0.174,0.147-0.266,0.145-0.424-0.021c-0.921-0.967-1.911-1.851-3.099-2.49c-1.707-0.919-3.477-1.031-5.306-0.436
			c-1.533,0.499-2.89,1.338-4.247,2.178c-0.535,0.332-1.034,0.723-1.611,0.985v-0.134c0.079-0.095,0.05-0.212,0.055-0.319
			c0.087-2.451,0.295-4.891,0.676-7.315c0.523-3.342,1.365-6.59,2.854-9.646c1.115-2.285,2.572-4.324,4.463-6.034
			c2.484-2.246,5.416-3.666,8.608-4.583c3.46-0.994,7.013-1.404,10.595-1.601c1.417-0.078,2.837-0.112,4.256-0.166
			c0.691,0.287,1.422,0.449,2.13,0.682c1.038,0.318,2.077,0.635,3.115,0.952c0.528,0.194,1.056,0.39,1.586,0.582
			c2.051,0.741,4.01,1.66,5.745,3.006c0.449,0.349,0.881,0.72,1.322,1.096c-0.088-0.327-0.209-0.632-0.324-0.938
			c-0.759-2.013-1.917-3.708-3.801-4.845c-0.779-0.47-1.606-0.845-2.397-1.289c0.077-0.01,0.154-0.018,0.231-0.031
			c2.497-0.416,5.013-0.662,7.54-0.762c2.172-0.086,4.348-0.054,6.516,0.171c2.534,0.264,5.013,0.763,7.407,1.648
			c3.542,1.31,6.559,3.36,8.898,6.347c2.042,2.606,3.343,5.572,4.177,8.756c0.828,3.159,1.181,6.381,1.271,9.638
			C563.39,409.594,563.39,410.808,563.39,412.021"/>
		<path id="path70" inkscape:connector-curvature="0" fill="#ECDC86" d="M563.39,408.381c0.021,0,0.04-0.004,0.06-0.011v3.663
			c-0.021-0.004-0.039-0.008-0.059-0.01C563.391,410.809,563.391,409.595,563.39,408.381"/>
		<path id="path74" inkscape:connector-curvature="0" fill="#A0918F" d="M543.272,356.099c0,0.021,0,0.042,0.005,0.063
			c-0.823,0-1.646,0-2.469,0c0.005-0.014,0.011-0.028,0.014-0.042c0-0.007-0.008-0.014-0.012-0.022h2.464H543.272z"/>
		<path id="path78" inkscape:connector-curvature="0" fill="#22AE63" d="M544.879,459.886c1.39-0.559,2.713-1.244,4-2.008
			c1.536-0.91,2.998-1.928,4.422-2.998c1.201-0.902,2.377-1.842,3.519-2.82c0.66-0.564,1.339-1.107,2.004-1.666
			c0.134-0.113,0.136-0.064,0.172,0.074c0.241,0.904,0.408,1.824,0.591,2.742c0.248,1.252,0.447,2.512,0.586,3.777
			c0.16,1.463,0.219,2.934,0.131,4.402c-0.107,1.834-0.438,3.633-1.075,5.363c-0.384,1.043-0.888,2.029-1.484,2.965
			c-0.766,1.205-1.678,2.289-2.732,3.246c-1.284,1.162-2.702,2.137-4.222,2.975c-2.063,1.139-4.247,1.973-6.489,2.656
			c-2.14,0.654-4.326,1.127-6.531,1.5c-0.599,0.102-1.198,0.211-1.808,0.195c-1.288-0.033-2.523-0.322-3.722-0.787
			c-1.822-0.707-3.442-1.813-5.209-2.629c-0.969-0.449-1.968-0.777-3.043-0.85c-1.383-0.092-2.555,0.381-3.544,1.316
			c-0.742,0.699-1.443,1.443-2.175,2.156c-1.229,1.199-2.667,2.012-4.375,2.295c-1.134,0.189-2.27,0.129-3.403-0.031
			c-1.574-0.227-3.117-0.588-4.631-1.074c-2.21-0.711-4.267-1.73-6.109-3.145c-1.746-1.338-3.165-2.973-4.288-4.873
			c-1.13-1.912-1.835-3.98-2.312-6.129c-0.209-0.943-0.336-1.904-0.435-2.869c-0.139-1.354-0.221-2.707-0.187-4.064
			c0.049-1.906,0.195-3.807,0.49-5.75c0.226,0.203,0.43,0.383,0.63,0.566c1.229,1.123,2.563,2.111,3.997,2.951
			c1.619,0.951,3.339,1.695,5.155,2.18c1.229,0.328,2.485,0.529,3.759,0.635c1.051,0.086,2.104,0.102,3.149,0.037
			c1.232-0.074,2.471-0.16,3.672-0.494c0.153-0.018,0.309-0.027,0.46-0.059c1.104-0.23,2.198-0.49,3.282-0.807
			c1.247-0.365,2.479-0.773,3.696-1.225c1.184-0.439,2.354-0.918,3.512-1.422c0.342-0.148,0.549-0.084,0.818,0.123
			c1.933,1.496,4,2.768,6.281,3.67c2.514,0.99,5.104,1.469,7.813,1.244C541.199,461.097,543.067,460.611,544.879,459.886"/>
		<path id="path82" inkscape:connector-curvature="0" fill="#ECDC86" d="M544.879,459.886c-1.812,0.725-3.68,1.211-5.634,1.371
			c-2.71,0.225-5.3-0.254-7.813-1.244c-2.282-0.902-4.349-2.174-6.282-3.67c-0.27-0.207-0.476-0.271-0.817-0.123
			c-1.159,0.504-2.329,0.982-3.513,1.422c-1.217,0.451-2.448,0.859-3.696,1.225c-1.084,0.316-2.179,0.576-3.281,0.807
			c-0.151,0.031-0.308,0.041-0.461,0.059c0.381-0.441,0.761-0.885,1.144-1.326c1.545-1.789,2.633-3.824,3.273-6.1
			c0.875-3.109,1.789-6.209,2.517-9.359c0.534-2.316,1.005-4.645,1.321-7.004c0.227-1.689,0.371-3.387,0.471-5.088
			c0.091-1.564,0.066-3.127-0.03-4.686c-0.295-4.715-1.331-9.27-3.24-13.589c-1.146-2.588-3.116-4.362-5.912-5.09
			c-1.209-0.315-2.415-0.216-3.603,0.155c-0.094,0.029-0.183,0.085-0.288,0.057c1.802-1.57,3.71-2.956,6.087-3.531
			c1.938-0.468,3.732-0.093,5.409,0.938c1.663,1.022,2.944,2.44,4.093,3.992c1.502,2.03,2.701,4.239,3.792,6.51
			c0.229,0.475,0.235,0.476,0.605,0.101c2.053-2.081,4.239-4.005,6.665-5.644c2.444-1.65,5.054-2.936,7.969-3.522
			c2.27-0.457,4.533-0.407,6.787,0.115c1.037,0.24,2.047,0.568,3.03,0.974c0.071,0.029,0.151,0.041,0.188,0.122
			c-2.895,0.057-5.399,1.16-7.681,2.864c-1.1,0.822-2.081,1.768-2.837,2.917c-0.629,0.954-1.132,1.982-1.624,3.012
			c-1.004,2.104-1.824,4.276-2.409,6.535c-0.501,1.932-0.817,3.893-0.983,5.883c-0.129,1.539-0.156,3.08-0.097,4.617
			c0.074,1.891,0.251,3.773,0.494,5.652c0.407,3.146,0.964,6.27,1.471,9.402c0.282,1.734,0.522,3.477,0.8,5.213
			c0.405,2.523,1.793,4.41,3.842,5.859C544.717,459.769,544.798,459.828,544.879,459.886"/>
		<path id="path86" inkscape:connector-curvature="0" fill="#3F2B29" d="M540.802,356.163c0.823,0,1.646,0,2.469,0
			c2.002,0.091,3.959,0.426,5.858,1.077c1.467,0.502,1.796,1.464,0.911,2.736c-0.631,0.908-1.504,1.563-2.408,2.171
			c-1.181,0.792-2.444,1.427-3.774,1.928c-1.394,0.525-2.723,0.012-3.565-1.372c-0.266-0.437-0.471-0.902-0.611-1.394
			c-0.041-0.146-0.103-0.212-0.26-0.24c-3.097-0.549-5.828,0.167-8.12,2.361c-1.866,1.787-2.972,4.026-3.745,6.449
			c-0.697,2.186-1.042,4.434-1.151,6.725c-0.098,2.037,0.04,4.056,0.354,6.066c0.063,0.345,0.146,0.688,0.182,1.035
			c0.044,0.428-0.083,0.801-0.455,1.065c-0.389,0.276-0.834,0.229-1.271,0.236c-1.038-0.317-2.076-0.635-3.114-0.953
			c-0.006-0.246-0.013-0.492-0.019-0.738c0.016-1.076,0.02-2.152,0.079-3.226c0.235-4.256,0.876-8.428,2.523-12.395
			c1.226-2.952,2.958-5.541,5.442-7.588c2.041-1.683,4.369-2.789,6.935-3.407C538.29,356.404,539.538,356.225,540.802,356.163"/>
		<path id="path90" inkscape:connector-curvature="0" fill="#386E35" d="M525.215,385.001c0.438-0.007,0.883,0.041,1.271-0.236
			c0.372-0.264,0.499-0.637,0.455-1.065c-0.036-0.348-0.119-0.689-0.182-1.034c0.195-0.018,0.391-0.036,0.586-0.053
			c0.792,0.443,1.619,0.818,2.397,1.288c1.884,1.137,3.043,2.832,3.802,4.845c0.115,0.307,0.235,0.612,0.323,0.939
			c-0.439-0.376-0.872-0.748-1.321-1.097c-1.736-1.346-3.694-2.265-5.746-3.005C526.271,385.391,525.743,385.195,525.215,385.001"/>
		<path id="path94" inkscape:connector-curvature="0" fill="#386E35" d="M522.081,383.312c0.006,0.246,0.013,0.492,0.019,0.738
			c-0.709-0.233-1.439-0.394-2.131-0.681C520.673,383.349,521.377,383.331,522.081,383.312"/>
	</g>
</g>
<g id="layer3" inkscape:label="Text" inkscape:groupmode="layer">
	<g id="g4374" transform="matrix(1.020815,0,0,1.020815,137.89782,342.66379)">
		
			<text transform="matrix(0.9796 0 0 0.9796 -118.7405 117.6199)" fill="#24AF63" font-family="'Arial-BoldMT'" font-size="122.2413">nf-</text>
		<text transform="matrix(0.9796 0 0 0.9796 57.1406 117.6199)" font-family="'Arial-BoldMT'" font-size="122.2413">core/</text>
		<text transform="matrix(0.9796 0 0 0.9796 -118.7405 214.6012)" font-family="'Arial-BoldMT'" font-size="101">lncpipe</text>
		
			<linearGradient id="path4330_1_" gradientUnits="userSpaceOnUse" x1="-135.0671" y1="488.1926" x2="-134.0671" y2="488.1926" gradientTransform="matrix(22.0967 17.2637 17.2637 -22.0967 -5431.0674 13201.2236)">
			<stop  offset="0" style="stop-color:#0C542A"/>
			<stop  offset="0.2147" style="stop-color:#0C542A"/>
			<stop  offset="0.58" style="stop-color:#25AF64"/>
			<stop  offset="0.8466" style="stop-color:#25AF64"/>
			<stop  offset="1" style="stop-color:#25AF64"/>
		</linearGradient>
		<path id="path4330" inkscape:connector-curvature="0" fill="url(#path4330_1_)" d="M15.091,81.977L2.805,94.31h34.858V81.977
			H15.091z"/>
	</g>
</g>
</svg>
